<svg width="360" height="235" viewBox="0 0 360 235" fill="none" xmlns="http://www.w3.org/2000/svg">
<path fill-rule="evenodd" clip-rule="evenodd" d="M-22 11.3491L-6.08333 6.60641C9.83333 1.86368 41.6667 -7.62177 73.5 11.3491C105.333 30.32 137.167 77.7473 169 110.946C200.833 144.145 232.667 163.116 264.5 163.116C296.333 163.116 328.167 144.145 344.083 134.66L360 125.175V239H344.083C328.167 239 296.333 239 264.5 239C232.667 239 200.833 239 169 239C137.167 239 105.333 239 73.5 239C41.6667 239 9.83333 239 -6.08333 239H-22V11.3491Z" fill="#F5C371"/>
</svg>
